<?xml version="1.0" encoding="UTF-8"?><svg id="b" xmlns="http://www.w3.org/2000/svg" width="309.722" height="296.384" viewBox="0 0 309.722 296.384"><defs><style>.e{fill:#211715;stroke-width:0px;}</style></defs><g id="c"><g id="d"><path class="e" d="M202.42,81.644c1.995-1.693,5.389-1.322,6.798.932.817,1.307.832,3.107.865,4.596.042,1.88-.097,3.761-.468,5.604-.701,3.481-2.009,6.976-4.136,9.848-.822,1.11-1.864,2.409-3.232,2.808-1.515.442-3.145.474-4.7.696-1.284.184-1.988,1.816-1.676,2.952.379,1.38,1.664,1.86,2.952,1.676,1.508-.215,3.045-.261,4.525-.65,1.787-.47,3.181-1.491,4.444-2.817,2.548-2.674,4.264-6.076,5.451-9.545,1.25-3.652,1.814-7.614,1.605-11.469-.198-3.642-1.188-7.04-4.435-9.08-3.614-2.27-8.215-1.637-11.388,1.054-.989.839-.864,2.53,0,3.394.98.98,2.403.841,3.394,0h0Z"/><path class="e" d="M196.587,103.868c-.072,2.1-.566,4.141-1.169,6.147-.213.71-.446,1.413-.682,2.116-.077.231-.155.461-.236.691-.027.077-.062.15-.089.227-.151.441.182-.41.06-.137-.919,2.05-2.011,4.014-3.188,5.926-3.446,5.6-7.632,10.897-12.753,15.059-2.802,2.277-5.965,4.086-9.462,4.893-3.009.695-1.735,5.324,1.276,4.629,7.266-1.677,13.311-6.994,18.049-12.512,3.924-4.57,7.592-9.715,10.074-15.232,1.645-3.657,2.784-7.798,2.921-11.806.106-3.09-4.694-3.085-4.8,0h0Z"/><path class="e" d="M105.735,78.25c-2.936-2.491-6.889-3.166-10.428-1.559-3.562,1.618-4.995,4.993-5.331,8.69-.68,7.471,1.623,15.973,6.71,21.604,2.768,3.064,6.55,5.114,10.743,4.211,3.018-.65,1.741-5.278-1.276-4.629-2.773.597-5.363-1.909-6.87-3.943-2.171-2.929-3.493-6.514-4.178-10.069-.341-1.772-.467-3.58-.426-5.384.034-1.493.045-3.285.865-4.596,1.41-2.255,4.802-2.625,6.798-.932.988.838,2.425.969,3.394,0,.859-.859.993-2.552,0-3.394h0Z"/><path class="e" d="M102.926,97.994c.891,7.288,2.493,14.392,5.627,21.072,3.956,8.431,10.535,15.888,18.361,20.94,4.067,2.625,8.654,4.539,13.455,5.253,1.28.19,2.58-.32,2.952-1.676.311-1.132-.386-2.761-1.676-2.952-8.093-1.203-14.969-5.868-20.511-11.707-5.746-6.055-9.562-13.333-11.644-21.394-.468-1.811-.855-3.643-1.173-5.486-.13-.752-.248-1.506-.357-2.261-.024-.165-.047-.33-.07-.495-.038-.275.031.244-.026-.193-.048-.367-.093-.733-.138-1.1-.157-1.286-.991-2.4-2.4-2.4-1.175,0-2.558,1.105-2.4,2.4h0Z"/><path class="e" d="M171.205,40.719c1.139,3.831,2.214,7.683,3.455,11.483,1.006,3.081,2.098,6.172,3.751,8.973,3.314,5.617,7.597,10.965,12.454,15.318,2.705,2.424,5.721,4.656,9.219,5.767,2.951.937,4.214-3.696,1.276-4.629-5.312-1.687-9.989-7.02-13.537-11.381-1.799-2.211-3.47-4.54-4.953-6.974-1.429-2.346-2.403-4.83-3.276-7.429-1.376-4.096-2.529-8.264-3.76-12.405-.878-2.954-5.512-1.696-4.629,1.276h0Z"/><path class="e" d="M171.629,37.86c-5.127,6.626-11.243,12.451-18.434,16.789-3.513,2.119-7.226,3.891-11.097,5.253-.995.35-1.998.676-3.008.977-.151.045-.61.118-.766.224-.164.111-.449-.109.226-.02.6.079,1.038.403,1.289.694.266.308-.049.275.011-.121.047-.312.031.454.017.1-.005-.134-.016-.269-.02-.403-.018-.682.039-1.367.114-2.044.358-3.26,1.369-7.047,1.803-10.553.268-2.166-2.744-3.026-4.097-1.697-8.934,8.771-18.006,17.446-27.693,25.389-1.003.822-.853,2.541,0,3.394.992.992,2.389.824,3.394,0,9.687-7.943,18.759-16.618,27.693-25.389l-4.097-1.697c-.091.732.043-.27-.028.194-.026.17-.053.34-.08.51-.067.409-.139.818-.214,1.225-.163.891-.339,1.779-.51,2.668-.373,1.931-.732,3.866-.956,5.822-.327,2.863.126,7.442,4.209,6.606,2.221-.455,4.45-1.371,6.55-2.212,2.222-.89,4.405-1.874,6.523-2.99,4.121-2.171,7.975-4.816,11.553-7.795,4.097-3.412,7.752-7.315,11.013-11.528.792-1.024.998-2.396,0-3.394-.826-.826-2.596-1.031-3.394,0h0Z"/><path class="e" d="M216.707,83.529c.458-5.437.318-10.925.068-16.369-.216-4.712-.499-9.423-1.311-14.076-1.941-11.13-6.386-22.196-13.454-31.069-1.917-2.406-4.151-4.495-6.31-6.677-2.015-2.036-4.108-3.897-6.576-5.374-2.657-1.591-5.073,2.558-2.423,4.145,2.02,1.209,3.692,2.697,5.346,4.363,1.817,1.83,3.72,3.591,5.41,5.541,3.374,3.894,5.997,8.448,8.124,13.125,2.264,4.98,3.899,10.276,4.96,15.639.872,4.408,1.16,8.866,1.384,13.345.29,5.787.47,11.626-.018,17.407-.109,1.293,1.181,2.4,2.4,2.4,1.389,0,2.291-1.103,2.4-2.4h0Z"/><path class="e" d="M86.155,83.528c-.005,7.938-.234,15.883-.902,23.795-.465,5.496-1.104,10.927-2.323,16.315-.58,2.563-1.323,5.078-1.835,7.659-.706,3.565-1.23,7.174-1.599,10.79-.308,3.02-.625,6.12-.118,9.133.456,2.709,1.634,5.353,3.256,7.564,4.534,6.178,11.82,9.342,19.411,9.221,3.086-.049,3.095-4.85,0-4.8-5.784.093-11.561-2.055-15.178-6.726-1.481-1.912-2.424-4.016-2.837-6.397-.141-.813-.125-2.284-.079-3.39.068-1.601.199-3.2.365-4.794.338-3.25.832-6.485,1.48-9.688.497-2.457,1.209-4.854,1.762-7.296,1.186-5.241,1.852-10.608,2.349-15.953.786-8.451,1.042-16.948,1.048-25.433.002-3.089-4.798-3.094-4.8,0h0Z"/><path class="e" d="M198.673,165.583c2.504.885,5.213,1.306,7.868,1.166,1.252-.066,2.46-1.057,2.4-2.4-.056-1.244-1.057-2.471-2.4-2.4-1.12.059-2.238.015-3.35-.13l.638.086c-1.325-.182-2.62-.505-3.88-.95-.562-.199-1.349-.051-1.849.242-.498.291-.973.862-1.103,1.434-.306,1.344.407,2.504,1.676,2.952h0Z"/><path class="e" d="M211.911,83.528c.153,10.567,1.035,21.165,3.149,31.532,1.264,6.199,3.251,12.083,5.129,18.103,1.836,5.887,3.512,13.175.599,18.954-1.387,2.752,2.753,5.185,4.145,2.423,4.728-9.383.698-19.724-2.221-29.011-2.242-7.133-3.773-14.492-4.69-21.91-.825-6.665-1.214-13.377-1.311-20.09-.045-3.086-4.845-3.095-4.8,0h0Z"/><path class="e" d="M113.552,164.871c3.972-1.805,7.923-3.658,11.882-5.493.597-.277,1.193-.554,1.791-.827.135-.061.282-.114.411-.186.068-.038-.525.217-.517.218.127.015.51-.198.658-.259.44-.18.88-.366,1.299-.592,2.343-1.263,3.78-3.446,4.296-6.022.697-3.48,1.19-7.063,1.43-10.602.088-1.295-1.166-2.4-2.4-2.4-1.372,0-2.312,1.102-2.4,2.4-.196,2.902-.663,5.764-1.135,8.632-.075.459-.159.917-.276,1.367-.057.219-.124.434-.195.649-.035.105-.072.214-.117.315.102-.233.046-.113-.042.036-.116.196-.223.398-.362.58.21-.275-.181.166-.252.237-.233.232-.738.562-1.248.806-2.952,1.411-5.971,2.715-8.942,4.092-2.098.973-4.196,1.947-6.302,2.904-1.18.536-1.468,2.247-.861,3.284.709,1.213,2.099,1.399,3.284.861h0Z"/><path class="e" d="M193.471,160.078h-.01l1.211.328c-4.184-1.974-8.353-3.979-12.546-5.933-.819-.382-1.692-.661-2.451-1.157-.941-.615-1.219-1.186-1.509-2.389-.86-3.568-1.243-7.383-1.425-11.038-.153-3.074-4.954-3.093-4.8,0,.177,3.574.749,7.079,1.285,10.611.404,2.658,1.307,4.988,3.547,6.628.601.44,1.241.77,1.924,1.062.206.088.413.177.621.26.884.351-.066-.013-.176-.09.05.035.119.052.174.079.541.267,1.094.511,1.639.768,1.97.928,3.938,1.861,5.906,2.794,1.14.54,2.28,1.081,3.421,1.621.928.439,2.16,1.258,3.189,1.258,3.089,0,3.094-4.8,0-4.8h0Z"/><path class="e" d="M180.021,5.411C170.253,1.472,159.764-.388,149.224.067c-10.834.468-21.488,3.816-30.928,9.091-7.036,3.932-13.158,8.966-17.914,15.495-4.967,6.82-8.316,14.792-10.523,22.901-3.178,11.675-4.089,23.917-3.707,35.975.098,3.081,4.898,3.095,4.8,0-.581-18.308,1.669-38.095,11.788-53.841,3.841-5.978,8.912-10.811,14.987-14.616,8.352-5.23,17.965-8.874,27.792-9.927,11.32-1.213,22.709.652,33.226,4.894,1.203.485,2.637-.528,2.952-1.676.377-1.37-.469-2.466-1.676-2.952h0Z"/><path class="e" d="M144.564,118.828c2.898,1.53,6.019,2.173,9.296,2.151,3.338-.022,6.704-.682,9.378-2.764,1.023-.797.837-2.557,0-3.394-1.01-1.01-2.368-.799-3.394,0,.727-.566.159-.131-.028-.011s-.379.23-.575.333c-.102.053-.206.101-.308.153-.366.188.068.043.093-.03-.037.106-.683.253-.794.288-.724.233-1.469.396-2.221.507.352-.052-.077.005-.216.019-.218.022-.436.04-.654.054-.526.034-1.052.047-1.579.044-.472-.003-.943-.019-1.413-.051-.216-.015-.432-.032-.647-.054-.021-.002-.798-.111-.317-.034-.701-.111-1.395-.257-2.075-.461-.291-.087-.574-.191-.861-.289-.615-.21.348.181-.207-.081-.356-.168-.707-.343-1.054-.526-1.146-.605-2.61-.291-3.284.861-.634,1.084-.289,2.676.861,3.284h0Z"/><path class="e" d="M152.648,96.918c.406,1.547.795,3.118,1.028,4.701l-.086-.638c.028.217.04.431.018.649l.086-.638c-.015.101-.037.195-.071.292l.242-.573c-.03.068-.061.126-.103.188l.375-.486c-.048.059-.094.104-.154.151l.486-.375c-.119.076-.244.138-.372.197l.573-.242c-.205.086-.408.148-.628.183l.638-.086c-.198.023-.391.022-.589-.001l.638.086c-.222-.031-.44-.085-.662-.115-.319-.1-.638-.114-.957-.043-.319.014-.617.109-.892.285-.498.291-.973.862-1.103,1.434-.14.614-.11,1.304.242,1.849.312.484.835,1.022,1.434,1.103.505.068.994.196,1.508.219.787.034,1.518-.206,2.221-.528.868-.397,1.545-1.177,1.776-2.112.195-.791.111-1.483-.023-2.276-.256-1.515-.606-3.016-.996-4.501-.318-1.214-1.729-2.072-2.952-1.676-1.25.404-2.018,1.651-1.676,2.952h0Z"/><path class="e" d="M127.778,83.607c-.785,2.551-.273,8.421,4.56,8.92,6.389-.038,6.729-7.134,4.578-10.471-1.761-2.732-6.938-3.868-9.138,1.551Z"/><path class="e" d="M178.938,83.607c.785,2.551.274,8.421-4.56,8.92-6.389-.038-6.729-7.135-4.578-10.471,1.761-2.732,6.938-3.868,9.138,1.551Z"/><path class="e" d="M61.753,218.31c1.904-2.836,3.237-6.113,4.65-9.208,2.046-4.482,4.035-8.99,6.157-13.437,1.86-3.899,3.762-7.859,6.202-11.437.198-.291.403-.576.61-.861.393-.539-.303.363.101-.134.116-.142.231-.284.35-.423.886-1.028,1.877-1.983,2.869-2.908,2.295-2.139,4.79-4.015,7.486-5.62,4.828-2.875,10.222-4.944,15.351-7.223,1.804-.801,3.618-1.68,5.542-2.182.144-.038.328-.053.465-.11.441-.183-.557.018-.159.031-.223-.007-1.405-.55-.595-.106.313.172.639.325.959.484,1.35.668,2.721,1.291,4.106,1.882,12.396,5.29,26.26,8.44,39.783,7.793,7.141-.342,14.274-1.606,21.174-3.452,6.139-1.642,12.299-3.747,17.866-6.849l-1.211.328c.443,0,1.498-.231,1.771-.638-.178.264-.985.343-1.169.234.095.056.254.048.36.087.849.31,1.7.584,2.531.946,2.695,1.174,5.337,2.469,7.995,3.723,1.172.552,2.589.327,3.284-.861.61-1.043.317-2.728-.861-3.284-2.922-1.378-5.824-2.807-8.8-4.067-2.157-.914-4.099-1.844-6.313-.613l1.211-.328c-1.215,0-2.583,1.076-3.661,1.599-1.127.547-2.272,1.056-3.434,1.524-2.794,1.124-5.654,2.086-8.545,2.928-6.108,1.779-12.396,3.089-18.734,3.677-13.488,1.252-27.241-1.433-39.757-6.456-1.301-.522-2.584-1.084-3.852-1.68-1.083-.509-2.21-1.303-3.378-1.581-1.773-.423-3.874.65-5.467,1.307-5.105,2.105-10.225,4.356-15.196,6.759-5.581,2.698-10.953,6.546-15.017,11.261-2.636,3.058-4.519,6.772-6.319,10.357-2.506,4.988-4.764,10.097-7.067,15.18-1.659,3.662-3.184,7.582-5.435,10.934-1.727,2.572,2.43,4.977,4.145,2.423h0Z"/><path class="e" d="M65.975,243.956c-1.964-8.827-3.986-17.641-5.877-26.484-.904-4.231-1.776-8.469-2.597-12.718-.198-1.027-.394-2.055-.586-3.083-.198-1.061-.28-2.235-.841-3.183-.995-1.682-2.767-2.121-4.581-1.989-5.617.409-11.222,1.437-16.755,2.451-5.362.982-10.773,1.981-16.025,3.458-1.616.454-3.097,1.13-3.719,2.83-.702,1.919-.018,4.477.151,6.477.369,4.383.685,8.77,1.022,13.156.705,9.169,1.506,18.342,2.975,27.425,2.326,14.383,6.579,31.131,20.909,38.037,7.89,3.803,16.942,4.654,25.282,1.796,7.557-2.589,13.955-7.85,20.024-12.883,1.374-1.14,2.737-2.293,4.1-3.445.991-.837.862-2.532,0-3.394-.981-.981-2.401-.839-3.394,0-5.459,4.611-10.936,9.399-17.196,12.909-6.468,3.627-14.058,4.725-21.243,2.775-6.774-1.838-12.345-5.889-16.023-11.868-3.533-5.742-5.341-12.346-6.681-18.897-3.353-16.393-3.782-33.185-5.347-49.798-.005-.054-.03-.644-.062-.654-.017-.005-.282.233-.289.36-.007.117-.084.002.191-.031.429-.052.892-.255,1.31-.366.991-.264,1.987-.505,2.986-.738,2.603-.608,5.221-1.153,7.843-1.671,5.395-1.065,11.319-2.132,16.446-2.768,1.032-.128,2.065-.244,3.101-.329.122-.01,1.271-.012,1.303-.086-.023.053-.514-.289-.484-.302-.061.026.289,1.564.329,1.783.745,3.992,1.537,7.975,2.365,11.951,1.68,8.07,3.501,16.109,5.305,24.152.479,2.134.956,4.268,1.431,6.403.671,3.014,5.299,1.738,4.629-1.276h0Z"/><path class="e" d="M257.694,257.554c.317,10.379-1.201,23.732-10.257,30.182-6.542,4.66-15.119,4.75-22.315,1.582-4.444-1.957-8.383-4.979-11.283-8.875-.773-1.038-2.077-1.567-3.284-.861-1.023.599-1.64,2.238-.861,3.284,5.963,8.009,15.377,13.342,25.476,13.428,10.157.087,19.13-5.744,23.307-14.986,3.35-7.413,4.263-15.688,4.017-23.753-.094-3.082-4.895-3.095-4.8,0h0Z"/><path class="e" d="M31.088,145.144c-1.059-6.316-1.995-12.654-2.88-18.997-.281-2.016-.522-3.549-.737-5.716-.125-1.252-.278-2.779.016-3.856.115-.421.253-.752.536-.924.433-.263,1.281-.433,1.859-.376.894.089,1.562.818,2.121,1.718.124.199.213.432.342.625.023.034-.214-.588-.049-.11.057.164.122.325.179.489.608,1.737,1.037,3.541,1.458,5.329,1.196,5.075,2.164,10.206,3.082,15.337.475,2.658.93,5.321,1.352,7.988.158,1,.312,2.002.455,3.004.016.114.107.771.046.325s.02.15.031.244c.033.27.066.54.092.811.124,1.29,1.014,2.4,2.4,2.4,1.202,0,2.525-1.102,2.4-2.4-.401-4.165-1.207-8.318-1.932-12.435-.988-5.614-2.032-11.23-3.351-16.778-.997-4.196-2.166-9.884-7.075-11.133-1.953-.497-4.409-.149-6.086.996-1.588,1.085-2.415,2.78-2.676,4.645-.337,2.406.068,4.849.384,7.239,1.01,7.632,2.131,15.257,3.404,22.85.215,1.279,1.795,1.994,2.952,1.676,1.356-.373,1.891-1.669,1.676-2.952h0Z"/><path class="e" d="M1.885,168.642c1.332,6.082,3.361,12.184,6.518,17.574,1.79,3.056,4.104,5.758,6.098,8.677.95,1.391,1.898,2.809,2.425,4.421.565,1.728.832,3.537,1.133,5.325.216,1.279,1.794,1.995,2.952,1.676,1.355-.372,1.893-1.67,1.676-2.952-.607-3.598-1.399-6.844-3.41-9.944-1.983-3.058-4.4-5.818-6.309-8.924-3.208-5.22-5.15-11.171-6.454-17.128-.66-3.016-5.289-1.74-4.629,1.276h0Z"/><path class="e" d="M43.087,170.665c-.081-1.815-.475-3.585-.726-5.379-.269-1.922-1.015-3.52-2.625-4.681-1.212-.874-2.704-1.239-4.137-1.584-.319-.077-.64-.146-.956-.233-.062-.017-.718-.089-.477-.123-.136.019-.346-.196-.068.093-.254-.265-.411-.782-.479-1.139-.159-.837.275-2.012.952-2.551-.236.188-.223.067.107.029.324-.037.648-.164.975-.208.843-.114,1.723-.099,2.573-.098,3.051.003,6.275-.036,9.232.806,1.331.379,2.674.976,3.642,1.995.989,1.04,1.47,2.572,1.843,3.927.712,2.582,1.093,5.528.819,8.209-.418,4.08-2.89,7.693-4.573,11.433-.516,1.147-1.022,2.301-1.493,3.467-.129.318-.272.639-.368.969-.021.074-.044.145-.061.22-.385,1.662.105-.233-.155.678-.498,1.747-.44,3.799-.389,5.598.054,1.901.236,3.795.449,5.684.145,1.288.999,2.4,2.4,2.4,1.185,0,2.546-1.104,2.4-2.4-.371-3.298-.862-6.88-.196-10.167.032-.159.085-.315.114-.474l.043-.319c.054-.408.057-.425.009-.051-.103.084-.104.324.049.005.16-.333.269-.706.408-1.049.161-.398-.087.195.099-.238.097-.227.195-.454.294-.68.252-.578.51-1.153.771-1.727.828-1.819,1.689-3.604,2.691-5.331,1.477-2.545,2.287-5.871,2.358-8.803.081-3.33-.344-6.92-1.469-10.061-.65-1.813-1.487-3.629-2.927-4.956-1.36-1.254-2.998-2.127-4.739-2.726-3.359-1.157-7.087-1.153-10.6-1.203-1.789-.026-3.743-.048-5.474.472-1.705.512-2.831,1.665-3.665,3.212-1.923,3.569-.762,8.399,3.342,9.654,1.247.381,3.456.373,4.255,1.53.434.629.376,1.63.494,2.357.187,1.15.406,2.275.458,3.441.136,3.077,4.937,3.094,4.8,0h0Z"/><path class="e" d="M13.999,169.52c-.019-.109.013-.527-.037-.136-.009.068-.052.349.01.03.069-.357-.11.296-.135.394.109-.42.084-.167.006-.037-.069.116-.127.237-.197.352-.053.088-.112.172-.167.258-.193.304.361-.385-.063.09-.16.18-.321.356-.496.522-.132.125-.596.439-.203.19-.169.107-.406.199-.552.331-.213.192.372-.061.105-.048-.085.004-.244.053-.324.082-.31.113.388.007.046-.009-.101-.005-.207.012-.309.013-.119.001-.933-.077-.431.004-.256-.041-.509-.096-.759-.164-.108-.029-.216-.06-.322-.094-.053-.017-.601-.225-.342-.115.233.099-.1-.052-.119-.062-.13-.069-.26-.135-.386-.209-.125-.073-.243-.154-.365-.232.031.019.273.231.066.055-.179-.152-.347-.315-.505-.488-.093-.102-.181-.208-.27-.313.16.188.089.124-.021-.034-.677-.967-1.244-2-1.774-3.053-.558-1.11-.954-1.882-1.266-2.878-.091-.29-.171-.583-.24-.878-.022-.095-.16-.86-.114-.503-.038-.291-.051-.588-.051-.881,0-.124.005-.248.008-.373.017-.728-.061.185.016-.211.054-.28.154-.539.222-.812-.143.573.023.093.089-.082.1-.266-.312.261-.08.096.06-.043.114-.127.167-.181.078-.079.164-.147.243-.224-.197.19-.29.188-.012.028.116-.066.678-.38.398-.237-.276.141-.029.011.038-.009.141-.043.28-.092.423-.13.113-.03.24-.038.348-.08.272-.107-.554.026-.015-.003.242-.013.482-.027.725-.017.121.005.242.021.363.026-.176-.007-.391-.079-.098-.002.231.061.468.147.701.196-.413-.087-.227-.117-.07-.029.133.074.267.149.4.223.081.045.152.104.23.152-.449-.275-.022.005.083.106.934.899,2.465.929,3.394,0,.906-.906.937-2.492,0-3.394-2.227-2.144-5.559-2.615-8.372-1.427-1.319.556-2.485,1.492-3.175,2.765-.915,1.688-.935,3.672-.636,5.52.272,1.682.959,3.238,1.695,4.762.656,1.358,1.334,2.727,2.216,3.955.961,1.337,2.077,2.46,3.608,3.128,1.67.729,3.427,1.063,5.24.773,3.485-.557,6.3-4.558,5.695-7.981-.219-1.239-1.799-2.049-2.952-1.676-1.333.431-1.911,1.624-1.676,2.952h0Z"/><path class="e" d="M24.462,166.607c.089.529.053,1.014-.074,1.475-.074.27-.113.347-.172.461-.058.113-.429.648-.286.475-.577.697-1.003.939-1.911.913-.468-.014-1.025-.132-1.49-.315-.201-.079-.431-.221-.641-.335-.279-.152-.034.008.026.057-.082-.067-.159-.144-.232-.22-.113-.118-.361-.416-.123-.111-.166-.212-.315-.44-.463-.664-.316-.478-.609-.971-.894-1.468-1.099-1.915-2.113-3.877-3.206-5.795-.784-1.376-1.486-2.81-2.099-4.271-.228-.543-.495-1.11-.641-1.681-.025-.096-.048-.154-.03-.266.015-.087.167-.466.242-.604,1.113-2.05,4.04-3.004,5.495-1.379,2.064,2.307,5.45-1.097,3.394-3.394-2.931-3.276-8.111-2.578-11.166.072-1.491,1.294-2.71,3.242-2.761,5.262s1.171,4.161,2.01,5.942c1.365,2.9,3.021,5.755,4.618,8.537.696,1.214,1.454,2.549,2.518,3.478,1.51,1.318,3.757,2.011,5.747,1.956,2.011-.056,3.88-.961,5.163-2.513,1.653-2,2.028-4.376,1.605-6.887-.216-1.279-1.794-1.995-2.952-1.676-1.355.372-1.893,1.669-1.676,2.952h0Z"/><path class="e" d="M32.737,162.157c-.059,1.172-.556,2.063-1.34,2.513-.586.336-1.341.545-1.974.13-.925-.607-1.53-1.848-2.01-2.828-.872-1.779-1.74-3.558-2.639-5.324-1.337-2.628-3.194-5.795-3.461-8.647-.011-.121-.002-.67-.018-.513-.032.306.136-.321.033-.105-.089.185.103-.205.095-.189.217-.399.603-.76,1.106-1.027,1.153-.612,2.509-.468,3.563.291,1.077.776,1.783,2.232,2.486,3.378.839,1.368,1.653,2.761,2.363,4.201.573,1.162,2.221,1.482,3.284.861,1.185-.693,1.437-2.117.861-3.284-.811-1.644-1.75-3.231-2.724-4.783-1.122-1.787-2.276-3.609-4.143-4.703-4.002-2.344-10.08-.816-11.491,3.931-.56,1.883.008,4.005.631,5.804.772,2.23,1.829,4.36,2.892,6.462,1.096,2.166,2.122,4.378,3.249,6.527.908,1.733,2.218,3.496,4.023,4.362,2.067.991,4.612.681,6.525-.539,2.279-1.453,3.357-3.883,3.489-6.518.154-3.088-4.646-3.079-4.8,0h0Z"/><path class="e" d="M77.01,205.354c1.74,13.204,3.699,26.363,6.09,39.465,1.835,10.051,3.906,20.252,4.772,30.225.545,6.276-.351,12.693-.892,18.94-.112,1.293,1.183,2.4,2.4,2.4,1.392,0,2.288-1.103,2.4-2.4.502-5.791,1.357-11.771.994-17.595-.301-4.827-1.087-9.638-1.844-14.409-1.65-10.391-3.732-20.705-5.423-31.089-1.383-8.489-2.573-17.01-3.697-25.537-.169-1.285-.982-2.4-2.4-2.4-1.165,0-2.571,1.106-2.4,2.4h0Z"/><path class="e" d="M206.396,173.971c-2.514-2.366-6.206-2.809-9.39-1.634-3.423,1.263-5.824,3.859-6.071,7.583-.235,3.558,1.814,6.721,3.285,9.8,1.564,3.276,3.133,6.54,5.136,9.576.713,1.081,2.122,1.541,3.284.861,1.074-.628,1.578-2.197.861-3.284-1.605-2.433-2.945-5.01-4.208-7.634-.663-1.378-1.313-2.763-1.986-4.136-.547-1.115-1.133-2.171-1.426-3.386-.445-1.849-.08-3.374,1.669-4.375,1.715-.981,4.081-1.267,5.452.023,2.248,2.116,5.649-1.272,3.394-3.394h0Z"/><path class="e" d="M266.73,186.12c-8.219-1.167-16.442-2.315-24.663-3.471-5.369-.755-10.739-1.511-16.108-2.266-1.737-.244-3.473-.489-5.21-.733-.503-.071-1.007-.137-1.509-.213-.129-.019-.259-.044-.389-.055-.033-.003-.065-.012-.098-.014-.531-.029-.074-.161-.092.054.004-.047.177.452.025.507.215-.079.344-2.441.38-2.701.207-1.474.413-2.948.619-4.422.2-1.43.4-2.86.598-4.29.06-.433.12-.866.179-1.299.02-.146.04-.292.059-.438l.043-.319c.042-.401.054-.426.037-.074-.153.098-.099.176-.249.261-.17.096-.624-.028-.189.011.179.016.358.051.536.076.559.079,1.119.158,1.678.237,1.872.264,3.744.527,5.617.791,10.82,1.523,21.639,3.045,32.459,4.568,1.789.252,3.578.504,5.368.756.517.073,1.034.146,1.551.219.131.018.262.043.393.056.039.004.077.014.116.016.426.028.236.051.026-.318-.077-.137.077-.45.008.106-.046.368-.103.734-.155,1.101l-.516,3.669-1.029,7.321c-.032.23-.078.463-.098.695-.005.064-.056.23-.05.258.061.262-.223.191.081-.069.14-.119.636-.06-.059-.102-3.085-.187-3.074,4.613,0,4.8,2.224.135,4.215-1.411,4.653-3.59.154-.766.219-1.561.328-2.335.392-2.791.785-5.582,1.177-8.373.113-.804.228-1.608.339-2.413.304-2.204-.574-4.367-2.782-5.178-1.014-.373-2.184-.415-3.249-.565-10.966-1.545-21.933-3.087-32.899-4.63-3.919-.551-7.837-1.102-11.756-1.655-.61-.086-1.244-.217-1.854-.191-1.241.054-2.37.629-3.175,1.563-.45.523-.767,1.141-.938,1.808-.09.353-.177,1.454-.054.304-.011.1-.027.2-.041.3-.391,2.826-.786,5.653-1.182,8.478-.415,2.958-1.743,7.083,1.335,9.037,1.121.712,2.542.752,3.824.932,4.719.664,9.439,1.328,14.158,1.992,10.199,1.435,20.399,2.868,30.597,4.306.293.041.586.082.879.124,1.282.182,2.578-.314,2.952-1.676.309-1.125-.385-2.769-1.676-2.952Z"/><path class="e" d="M271.367,235.16c-.893,5.807-1.768,11.616-2.66,17.423-.127.828-.267,1.576-1.074,1.979-.751.374-1.109.15-1.967.032-1.785-.246-3.571-.492-5.356-.738-9.999-1.376-19.999-2.747-29.999-4.119-9.303-1.276-18.605-2.552-27.907-3.833-1.603-.221-3.877-.043-4.278-1.983-.104-.503-.012-.064.033-.505.033-.326.089-.651.134-.975.108-.784.215-1.568.322-2.353.507-3.703,1.013-7.407,1.518-11.11,2.674-19.59,5.338-39.181,8.012-58.77.506-3.709,1.013-7.418,1.521-11.127.163-1.191.087-3.417.922-4.3,1.017-1.075,2.715-.385,4.196-.177,9.267,1.301,18.535,2.602,27.802,3.904,9.89,1.389,19.781,2.778,29.671,4.167,1.794.252,3.588.504,5.382.756.747.105,1.679.097,2.331.493.81.492.851,1.426.791,1.923-.581,4.773-1.334,9.531-1.999,14.292-.293,2.097-.586,4.193-.876,6.29-.177,1.282.311,2.577,1.676,2.952,1.121.308,2.774-.384,2.952-1.676.698-5.046,1.407-10.091,2.113-15.137.315-2.248.768-4.526.939-6.789.245-3.249-2.186-6.26-5.375-6.798-9.134-1.542-18.383-2.583-27.556-3.871-10.495-1.474-20.99-2.947-31.485-4.421-1.934-.272-3.868-.543-5.802-.815-2.495-.35-4.972-.855-7.196.717-2.187,1.545-2.641,3.75-2.979,6.212-.233,1.697-.465,3.394-.697,5.09-1.298,9.494-2.592,18.99-3.886,28.485-1.451,10.647-2.901,21.294-4.353,31.94-.589,4.32-1.179,8.64-1.769,12.96-.233,1.702-.466,3.404-.699,5.106-.322,2.352-.811,4.705.553,6.856,1.527,2.408,3.897,2.89,6.498,3.248,1.964.271,3.928.541,5.892.811,4.968.683,9.937,1.365,14.906,2.047,10.925,1.499,21.85,2.997,32.774,4.499,2.189.301,4.378.602,6.568.903,1.876.258,3.814.685,5.706.771,3.224.146,6.147-2.305,6.641-5.468.357-2.285.684-4.575,1.034-6.861.549-3.585,1.101-7.17,1.653-10.755.197-1.28-.324-2.581-1.676-2.952-1.137-.312-2.754.387-2.952,1.676h0Z"/><path class="e" d="M261.041,205.098c-1.306-.186-2.611-.372-3.917-.558-.286-.041-.571-.081-.857-.122-.155-.022-.313-.037-.466-.07l-.13-.031c-.24-.079-.171-.045.206.102-.016-.02-.225-.129-.223-.129l.283.221c-.064-.055-.125-.114-.182-.177.222.081.313.454.116.128-.288-.475.162.47.027.044-.145-.456.03.607.026.121-.001-.156.063-.426-.043.217.044-.265.076-.533.113-.799.095-.675.188-1.35.279-2.025.058-.429.116-.859.173-1.289l.021-.157c.036-.272.028-.206-.023.198.017-.018.069-.258.069-.259l-.142.331c.038-.078.081-.153.128-.225-.016.246-.347.385-.135.186.339-.319-.507.263-.09.056.072-.045.147-.085.225-.121-.36.141-.45.185-.272.131.349-.13.117.152-.188.01l.133-.003c.247.015.18.001-.202-.041.284.043.568.081.852.122.653.093,1.306.187,1.96.28s1.312.184,1.967.281c.101.015.207.026.308.048l.13.032c.24.079.171.046-.207-.101l.113.061c.208.135.15.084-.175-.153l.093.086c.167.181.124.115-.13-.197l.07.106c.119.219.094.141-.073-.233.004.053.055.184.077.244.162.445-.037-.603-.025-.121.011.455.071-.406.064-.358-.02.142-.04.285-.06.427l-.267,1.9c-.079.564-.153,1.129-.238,1.692-.01.069-.019.136-.033.205l-.031.13c-.079.24-.045.171.102-.206-.028.058-.06.114-.095.168-.099.155-.036.079.187-.228l-.086.094c-.181.168-.115.125.197-.129-.079.023-.261.13-.329.19l.335-.15c-.082.026-.165.047-.25.062.424-.046.506-.063.246-.053-.09-.001-.18-.008-.269-.021-.572-.063-1.307.313-1.697.703-.416.416-.73,1.099-.703,1.697.063,1.417,1.058,2.253,2.4,2.4,2.041.223,3.86-1.219,4.526-3.065.182-.506.207-1.088.281-1.616l.333-2.367c.026-.186.053-.372.079-.559.135-.97.098-1.812-.286-2.72-.372-.881-1.037-1.635-1.878-2.103-.768-.428-1.561-.511-2.41-.632-.808-.115-1.616-.231-2.424-.346-.835-.119-1.747-.358-2.585-.324-1.96.079-3.797,1.456-4.223,3.416-.071.328-.094.669-.138,1.001-.01.078-.021.156-.031.234,0,.006.069-.513.032-.235-.053.392-.106.784-.16,1.176-.109.789-.224,1.577-.33,2.366-.294,2.186,1.111,4.46,3.337,4.938.838.18,1.716.248,2.565.369.892.127,1.784.254,2.676.381.667.095,1.243.113,1.849-.242.498-.291.973-.862,1.103-1.434.258-1.134-.347-2.763-1.676-2.952Z"/><path class="e" d="M256.009,240.902c-1.306-.186-2.611-.372-3.917-.558-.286-.041-.571-.081-.857-.122-.155-.022-.313-.037-.466-.07l-.13-.031c-.24-.079-.171-.045.206.102-.016-.02-.225-.129-.223-.129l.283.221c-.064-.055-.125-.114-.182-.177.222.081.313.454.116.128-.288-.475.162.47.027.044-.145-.456.03.607.026.121-.001-.156.063-.426-.043.217.044-.265.076-.533.113-.799.095-.675.188-1.35.279-2.025.058-.429.116-.859.173-1.289l.021-.157c.036-.272.028-.206-.023.198.017-.018.069-.258.069-.259l-.142.331c.038-.078.081-.153.128-.225-.016.246-.347.385-.135.186.339-.319-.507.263-.09.056.072-.045.147-.085.225-.121-.36.141-.45.185-.272.131.349-.13.117.152-.188.01l.133-.003c.247.015.18.001-.202-.041.284.043.568.081.852.122.653.093,1.306.187,1.96.28s1.312.184,1.967.281c.101.015.207.026.308.048l.13.032c.24.079.171.046-.207-.101l.113.061c.208.135.15.084-.175-.153l.093.086c.167.181.124.115-.13-.197l.07.106c.119.219.094.141-.073-.233.004.053.055.184.077.244.162.445-.037-.603-.025-.121.011.455.071-.406.064-.358-.02.142-.04.285-.06.427l-.267,1.9c-.079.564-.153,1.129-.238,1.692-.01.069-.019.136-.033.205l-.031.13c-.079.24-.045.171.102-.206-.028.058-.06.114-.095.168-.099.155-.036.079.187-.228l-.086.094c-.181.168-.115.125.197-.129-.079.023-.261.13-.329.19l.335-.15c-.082.026-.165.047-.25.062.424-.046.506-.063.246-.053-.09-.001-.18-.008-.269-.021-.572-.063-1.307.313-1.697.703-.416.416-.73,1.099-.703,1.697.063,1.417,1.058,2.253,2.4,2.4,2.041.223,3.86-1.219,4.526-3.065.182-.506.207-1.088.281-1.616l.333-2.367c.026-.186.053-.372.079-.559.135-.97.098-1.812-.286-2.72-.372-.881-1.037-1.635-1.878-2.103-.768-.428-1.561-.511-2.41-.632-.808-.115-1.616-.231-2.424-.346-.835-.119-1.747-.358-2.585-.324-1.96.079-3.797,1.456-4.223,3.416-.071.328-.094.669-.138,1.001-.01.078-.021.156-.031.234,0,.006.069-.513.032-.235-.053.392-.106.784-.16,1.176-.109.789-.224,1.577-.33,2.366-.294,2.186,1.111,4.46,3.337,4.938.838.18,1.716.248,2.565.369.892.127,1.784.254,2.676.381.667.095,1.243.113,1.849-.242.498-.291.973-.862,1.103-1.434.258-1.134-.347-2.763-1.676-2.952Z"/><path class="e" d="M218.942,235.693c-1.306-.186-2.611-.372-3.917-.558-.286-.041-.571-.081-.857-.122-.155-.022-.313-.037-.466-.07l-.13-.031c-.24-.079-.171-.045.206.102-.016-.02-.225-.129-.223-.129l.283.221c-.064-.055-.125-.114-.182-.177.222.081.313.454.116.128-.288-.475.162.47.027.044-.145-.456.03.607.026.121-.001-.156.063-.426-.043.217.044-.265.076-.533.113-.799.095-.675.188-1.35.279-2.025.058-.429.116-.859.173-1.289l.021-.157c.036-.272.028-.206-.023.198.017-.018.069-.258.069-.259l-.142.331c.038-.078.081-.153.128-.225-.016.246-.347.385-.135.186.339-.319-.507.263-.09.056.072-.045.147-.085.225-.121-.36.141-.45.185-.272.131.349-.13.117.152-.188.01l.133-.003c.247.015.18.001-.202-.041.284.043.568.081.852.122.653.093,1.306.187,1.96.28s1.312.184,1.967.281c.101.015.207.026.308.048l.13.032c.24.079.171.046-.207-.101l.113.061c.208.135.15.084-.175-.153l.093.086c.167.181.124.115-.13-.197l.07.106c.119.219.094.141-.073-.233.004.053.055.184.077.244.162.445-.037-.603-.025-.121.011.455.071-.406.064-.358-.02.142-.04.285-.06.427l-.267,1.9c-.079.564-.153,1.129-.238,1.692-.01.069-.019.136-.033.205l-.031.13c-.079.24-.045.171.102-.206-.028.058-.06.114-.095.168-.099.155-.036.079.187-.228l-.086.094c-.181.168-.115.125.197-.129-.079.023-.261.13-.329.19l.335-.15c-.082.026-.165.047-.25.062.424-.046.506-.063.246-.053-.09-.001-.18-.008-.269-.021-.572-.063-1.307.313-1.697.703-.416.416-.73,1.099-.703,1.697.063,1.417,1.058,2.253,2.4,2.4,2.041.223,3.86-1.219,4.526-3.065.182-.506.207-1.088.281-1.616l.333-2.367c.026-.186.053-.372.079-.559.135-.97.098-1.812-.286-2.72-.372-.881-1.037-1.635-1.878-2.103-.768-.428-1.561-.511-2.41-.632-.808-.115-1.616-.231-2.424-.346-.835-.119-1.747-.358-2.585-.324-1.96.079-3.797,1.456-4.223,3.416-.071.328-.094.669-.138,1.001-.01.078-.021.156-.031.234,0,.006.069-.513.032-.235-.053.392-.106.784-.16,1.176-.109.789-.224,1.577-.33,2.366-.294,2.186,1.111,4.46,3.337,4.938.838.18,1.716.248,2.565.369.892.127,1.784.254,2.676.381.667.095,1.243.113,1.849-.242.498-.291.973-.862,1.103-1.434.258-1.134-.347-2.763-1.676-2.952Z"/><path class="e" d="M237.475,238.297c-1.306-.186-2.611-.372-3.917-.558-.286-.041-.571-.081-.857-.122-.155-.022-.313-.037-.466-.07l-.13-.031c-.24-.079-.171-.045.206.102-.016-.02-.225-.129-.223-.129l.283.221c-.064-.055-.125-.114-.182-.177.222.081.313.454.116.128-.288-.475.162.47.027.044-.145-.456.03.607.026.121-.001-.156.063-.426-.043.217.044-.265.076-.533.113-.799.095-.675.188-1.35.279-2.025.058-.429.116-.859.173-1.289l.021-.157c.036-.272.028-.206-.023.198.017-.018.069-.258.069-.259l-.142.331c.038-.078.081-.153.128-.225-.016.246-.347.385-.135.186.339-.319-.507.263-.09.056.072-.045.147-.085.225-.121-.36.141-.45.185-.272.131.349-.13.117.152-.188.01l.133-.003c.247.015.18.001-.202-.041.284.043.568.081.852.122.653.093,1.306.187,1.96.28s1.312.184,1.967.281c.101.015.207.026.308.048l.13.032c.24.079.171.046-.207-.101l.113.061c.208.135.15.084-.175-.153l.093.086c.167.181.124.115-.13-.197l.07.106c.119.219.094.141-.073-.233.004.053.055.184.077.244.162.445-.037-.603-.025-.121.011.455.071-.406.064-.358-.02.142-.04.285-.06.427l-.267,1.9c-.079.564-.153,1.129-.238,1.692-.01.069-.019.136-.033.205l-.031.13c-.079.24-.045.171.102-.206-.028.058-.06.114-.095.168-.099.155-.036.079.187-.228l-.086.094c-.181.168-.115.125.197-.129-.079.023-.261.13-.329.19l.335-.15c-.082.026-.165.047-.25.062.424-.046.506-.063.246-.053-.09-.001-.18-.008-.269-.021-.572-.063-1.307.313-1.697.703-.416.416-.73,1.099-.703,1.697.063,1.417,1.058,2.253,2.4,2.4,2.041.223,3.86-1.219,4.526-3.065.182-.506.207-1.088.281-1.616l.333-2.367c.026-.186.053-.372.079-.559.135-.97.098-1.812-.286-2.72-.372-.881-1.037-1.635-1.878-2.103-.768-.428-1.561-.511-2.41-.632-.808-.115-1.616-.231-2.424-.346-.835-.119-1.747-.358-2.585-.324-1.96.079-3.797,1.456-4.223,3.416-.071.328-.094.669-.138,1.001-.01.078-.021.156-.031.234,0,.006.069-.513.032-.235-.053.392-.106.784-.16,1.176-.109.789-.224,1.577-.33,2.366-.294,2.186,1.111,4.46,3.337,4.938.838.18,1.716.248,2.565.369.892.127,1.784.254,2.676.381.667.095,1.243.113,1.849-.242.498-.291.973-.862,1.103-1.434.258-1.134-.347-2.763-1.676-2.952Z"/><path class="e" d="M258.525,223c-1.306-.186-2.611-.372-3.917-.558-.286-.041-.571-.081-.857-.122-.155-.022-.313-.037-.466-.07l-.13-.031c-.24-.079-.171-.045.206.102-.016-.02-.225-.129-.223-.129l.283.221c-.064-.055-.125-.114-.182-.177.222.081.313.454.116.128-.288-.475.162.47.027.044-.145-.456.03.607.026.121-.001-.156.063-.426-.043.217.044-.265.076-.533.113-.799.095-.675.188-1.35.279-2.025.058-.429.116-.859.173-1.289l.021-.157c.036-.272.028-.206-.023.198.017-.018.069-.258.069-.259l-.142.331c.038-.078.081-.153.128-.225-.016.246-.347.385-.135.186.339-.319-.507.263-.09.056.072-.045.147-.085.225-.121-.36.141-.45.185-.272.131.349-.13.117.152-.188.01l.133-.003c.247.015.18.001-.202-.041.284.043.568.081.852.122.653.093,1.306.187,1.96.28s1.312.184,1.967.281c.101.015.207.026.308.048l.13.032c.24.079.171.046-.207-.101l.113.061c.208.135.15.084-.175-.153l.093.086c.167.181.124.115-.13-.197l.07.106c.119.219.094.141-.073-.233.004.053.055.184.077.244.162.445-.037-.603-.025-.121.011.455.071-.406.064-.358-.02.142-.04.285-.06.427l-.267,1.9c-.079.564-.153,1.129-.238,1.692-.01.069-.019.136-.033.205l-.031.13c-.079.24-.045.171.102-.206-.028.058-.06.114-.095.168-.099.155-.036.079.187-.228l-.086.094c-.181.168-.115.125.197-.129-.079.023-.261.13-.329.19l.335-.15c-.082.026-.165.047-.25.062.424-.046.506-.063.246-.053-.09-.001-.18-.008-.269-.021-.572-.063-1.307.313-1.697.703-.416.416-.73,1.099-.703,1.697.063,1.417,1.058,2.253,2.4,2.4,2.041.223,3.86-1.219,4.526-3.065.182-.506.207-1.088.281-1.616l.333-2.367c.026-.186.053-.372.079-.559.135-.97.098-1.812-.286-2.72-.372-.881-1.037-1.635-1.878-2.103-.768-.428-1.561-.511-2.41-.632-.808-.115-1.616-.231-2.424-.346-.835-.119-1.747-.358-2.585-.324-1.96.079-3.797,1.456-4.223,3.416-.071.328-.094.669-.138,1.001-.01.078-.021.156-.031.234,0,.006.069-.513.032-.235-.053.392-.106.784-.16,1.176-.109.789-.224,1.577-.33,2.366-.294,2.186,1.111,4.46,3.337,4.938.838.18,1.716.248,2.565.369.892.127,1.784.254,2.676.381.667.095,1.243.113,1.849-.242.498-.291.973-.862,1.103-1.434.258-1.134-.347-2.763-1.676-2.952Z"/><path class="e" d="M221.458,217.79c-1.306-.186-2.611-.372-3.917-.558-.286-.041-.571-.081-.857-.122-.155-.022-.313-.037-.466-.07l-.13-.031c-.24-.079-.171-.045.206.102-.016-.02-.225-.129-.223-.129l.283.221c-.064-.055-.125-.114-.182-.177.222.081.313.454.116.128-.288-.475.162.47.027.044-.145-.456.03.607.026.121-.001-.156.063-.426-.043.217.044-.265.076-.533.113-.799.095-.675.188-1.35.279-2.025.058-.429.116-.859.173-1.289l.021-.157c.036-.272.028-.206-.023.198.017-.018.069-.258.069-.259l-.142.331c.038-.078.081-.153.128-.225-.016.246-.347.385-.135.186.339-.319-.507.263-.09.056.072-.045.147-.085.225-.121-.36.141-.45.185-.272.131.349-.13.117.152-.188.01l.133-.003c.247.015.18.001-.202-.041.284.043.568.081.852.122.653.093,1.306.187,1.96.28s1.312.184,1.967.281c.101.015.207.026.308.048l.13.032c.24.079.171.046-.207-.101l.113.061c.208.135.15.084-.175-.153l.093.086c.167.181.124.115-.13-.197l.07.106c.119.219.094.141-.073-.233.004.053.055.184.077.244.162.445-.037-.603-.025-.121.011.455.071-.406.064-.358-.02.142-.04.285-.06.427l-.267,1.9c-.079.564-.153,1.129-.238,1.692-.01.069-.019.136-.033.205l-.031.13c-.079.24-.045.171.102-.206-.028.058-.06.114-.095.168-.099.155-.036.079.187-.228l-.086.094c-.181.168-.115.125.197-.129-.079.023-.261.13-.329.19l.335-.15c-.082.026-.165.047-.25.062.424-.046.506-.063.246-.053-.09-.001-.18-.008-.269-.021-.572-.063-1.307.313-1.697.703-.416.416-.73,1.099-.703,1.697.063,1.417,1.058,2.253,2.4,2.4,2.041.223,3.86-1.219,4.526-3.065.182-.506.207-1.088.281-1.616l.333-2.367c.026-.186.053-.372.079-.559.135-.97.098-1.812-.286-2.72-.372-.881-1.037-1.635-1.878-2.103-.768-.428-1.561-.511-2.41-.632-.808-.115-1.616-.231-2.424-.346-.835-.119-1.747-.358-2.585-.324-1.96.079-3.797,1.456-4.223,3.416-.071.328-.094.669-.138,1.001-.01.078-.021.156-.031.234,0,.006.069-.513.032-.235-.053.392-.106.784-.16,1.176-.109.789-.224,1.577-.33,2.366-.294,2.186,1.111,4.46,3.337,4.938.838.18,1.716.248,2.565.369.892.127,1.784.254,2.676.381.667.095,1.243.113,1.849-.242.498-.291.973-.862,1.103-1.434.258-1.134-.347-2.763-1.676-2.952Z"/><path class="e" d="M239.991,220.395c-1.306-.186-2.611-.372-3.917-.558-.286-.041-.571-.081-.857-.122-.155-.022-.313-.037-.466-.07l-.13-.031c-.24-.079-.171-.045.206.102-.016-.02-.225-.129-.223-.129l.283.221c-.064-.055-.125-.114-.182-.177.222.081.313.454.116.128-.288-.475.162.47.027.044-.145-.456.03.607.026.121-.001-.156.063-.426-.043.217.044-.265.076-.533.113-.799.095-.675.188-1.35.279-2.025.058-.429.116-.859.173-1.289l.021-.157c.036-.272.028-.206-.023.198.017-.018.069-.258.069-.259l-.142.331c.038-.078.081-.153.128-.225-.016.246-.347.385-.135.186.339-.319-.507.263-.09.056.072-.045.147-.085.225-.121-.36.141-.45.185-.272.131.349-.13.117.152-.188.01l.133-.003c.247.015.18.001-.202-.041.284.043.568.081.852.122.653.093,1.306.187,1.96.28s1.312.184,1.967.281c.101.015.207.026.308.048l.13.032c.24.079.171.046-.207-.101l.113.061c.208.135.15.084-.175-.153l.093.086c.167.181.124.115-.13-.197l.07.106c.119.219.094.141-.073-.233.004.053.055.184.077.244.162.445-.037-.603-.025-.121.011.455.071-.406.064-.358-.02.142-.04.285-.06.427l-.267,1.9c-.079.564-.153,1.129-.238,1.692-.01.069-.019.136-.033.205l-.031.13c-.079.24-.045.171.102-.206-.028.058-.06.114-.095.168-.099.155-.036.079.187-.228l-.086.094c-.181.168-.115.125.197-.129-.079.023-.261.13-.329.19l.335-.15c-.082.026-.165.047-.25.062.424-.046.506-.063.246-.053-.09-.001-.18-.008-.269-.021-.572-.063-1.307.313-1.697.703-.416.416-.73,1.099-.703,1.697.063,1.417,1.058,2.253,2.4,2.4,2.041.223,3.86-1.219,4.526-3.065.182-.506.207-1.088.281-1.616l.333-2.367c.026-.186.053-.372.079-.559.135-.97.098-1.812-.286-2.72-.372-.881-1.037-1.635-1.878-2.103-.768-.428-1.561-.511-2.41-.632-.808-.115-1.616-.231-2.424-.346-.835-.119-1.747-.358-2.585-.324-1.96.079-3.797,1.456-4.223,3.416-.071.328-.094.669-.138,1.001-.01.078-.021.156-.031.234,0,.006.069-.513.032-.235-.053.392-.106.784-.16,1.176-.109.789-.224,1.577-.33,2.366-.294,2.186,1.111,4.46,3.337,4.938.838.18,1.716.248,2.565.369.892.127,1.784.254,2.676.381.667.095,1.243.113,1.849-.242.498-.291.973-.862,1.103-1.434.258-1.134-.347-2.763-1.676-2.952Z"/><path class="e" d="M223.974,199.888c-1.306-.186-2.611-.372-3.917-.558-.286-.041-.571-.081-.857-.122-.155-.022-.313-.037-.466-.07l-.13-.031c-.24-.079-.171-.045.206.102-.016-.02-.225-.129-.223-.129l.283.221c-.064-.055-.125-.114-.182-.177.222.081.313.454.116.128-.288-.475.162.47.027.044-.145-.456.03.607.026.121-.001-.156.063-.426-.043.217.044-.265.076-.533.113-.799.095-.675.188-1.35.279-2.025.058-.429.116-.859.173-1.289l.021-.157c.036-.272.028-.206-.023.198.017-.018.069-.258.069-.259l-.142.331c.038-.078.081-.153.128-.225-.016.246-.347.385-.135.186.339-.319-.507.263-.09.056.072-.045.147-.085.225-.121-.36.141-.45.185-.272.131.349-.13.117.152-.188.01l.133-.003c.247.015.18.001-.202-.041.284.043.568.081.852.122.653.093,1.306.187,1.96.28s1.312.184,1.967.281c.101.015.207.026.308.048l.13.032c.24.079.171.046-.207-.101l.113.061c.208.135.15.084-.175-.153l.093.086c.167.181.124.115-.13-.197l.07.106c.119.219.094.141-.073-.233.004.053.055.184.077.244.162.445-.037-.603-.025-.121.011.455.071-.406.064-.358-.02.142-.04.285-.06.427l-.267,1.9c-.079.564-.153,1.129-.238,1.692-.01.069-.019.136-.033.205l-.031.13c-.079.24-.045.171.102-.206-.028.058-.06.114-.095.168-.099.155-.036.079.187-.228l-.086.094c-.181.168-.115.125.197-.129-.079.023-.261.13-.329.19l.335-.15c-.082.026-.165.047-.25.062.424-.046.506-.063.246-.053-.09-.001-.18-.008-.269-.021-.572-.063-1.307.313-1.697.703-.416.416-.73,1.099-.703,1.697.063,1.417,1.058,2.253,2.4,2.4,2.041.223,3.86-1.219,4.526-3.065.182-.506.207-1.088.281-1.616l.333-2.367c.026-.186.053-.372.079-.559.135-.97.098-1.812-.286-2.72-.372-.881-1.037-1.635-1.878-2.103-.768-.428-1.561-.511-2.41-.632-.808-.115-1.616-.231-2.424-.346-.835-.119-1.747-.358-2.585-.324-1.96.079-3.797,1.456-4.223,3.416-.071.328-.094.669-.138,1.001-.01.078-.021.156-.031.234,0,.006.069-.513.032-.235-.053.392-.106.784-.16,1.176-.109.789-.224,1.577-.33,2.366-.294,2.186,1.111,4.46,3.337,4.938.838.18,1.716.248,2.565.369.892.127,1.784.254,2.676.381.667.095,1.243.113,1.849-.242.498-.291.973-.862,1.103-1.434.258-1.134-.347-2.763-1.676-2.952Z"/><path class="e" d="M242.507,202.493c-1.306-.186-2.611-.372-3.917-.558-.286-.041-.571-.081-.857-.122-.155-.022-.313-.037-.466-.07l-.13-.031c-.24-.079-.171-.045.206.102-.016-.02-.225-.129-.223-.129l.283.221c-.064-.055-.125-.114-.182-.177.222.081.313.454.116.128-.288-.475.162.47.027.044-.145-.456.03.607.026.121-.001-.156.063-.426-.043.217.044-.265.076-.533.113-.799.095-.675.188-1.35.279-2.025.058-.429.116-.859.173-1.289l.021-.157c.036-.272.028-.206-.023.198.017-.018.069-.258.069-.259l-.142.331c.038-.078.081-.153.128-.225-.016.246-.347.385-.135.186.339-.319-.507.263-.09.056.072-.045.147-.085.225-.121-.36.141-.45.185-.272.131.349-.13.117.152-.188.01l.133-.003c.247.015.18.001-.202-.041.284.043.568.081.852.122.653.093,1.306.187,1.96.28s1.312.184,1.967.281c.101.015.207.026.308.048l.13.032c.24.079.171.046-.207-.101l.113.061c.208.135.15.084-.175-.153l.093.086c.167.181.124.115-.13-.197l.07.106c.119.219.094.141-.073-.233.004.053.055.184.077.244.162.445-.037-.603-.025-.121.011.455.071-.406.064-.358-.02.142-.04.285-.06.427l-.267,1.9c-.079.564-.153,1.129-.238,1.692-.01.069-.019.136-.033.205l-.031.13c-.079.24-.045.171.102-.206-.028.058-.06.114-.095.168-.099.155-.036.079.187-.228l-.086.094c-.181.168-.115.125.197-.129-.079.023-.261.13-.329.19l.335-.15c-.082.026-.165.047-.25.062.424-.046.506-.063.246-.053-.09-.001-.18-.008-.269-.021-.572-.063-1.307.313-1.697.703-.416.416-.73,1.099-.703,1.697.063,1.417,1.058,2.253,2.4,2.4,2.041.223,3.86-1.219,4.526-3.065.182-.506.207-1.088.281-1.616l.333-2.367c.026-.186.053-.372.079-.559.135-.97.098-1.812-.286-2.72-.372-.881-1.037-1.635-1.878-2.103-.768-.428-1.561-.511-2.41-.632-.808-.115-1.616-.231-2.424-.346-.835-.119-1.747-.358-2.585-.324-1.96.079-3.797,1.456-4.223,3.416-.071.328-.094.669-.138,1.001-.01.078-.021.156-.031.234,0,.006.069-.513.032-.235-.053.392-.106.784-.16,1.176-.109.789-.224,1.577-.33,2.366-.294,2.186,1.111,4.46,3.337,4.938.838.18,1.716.248,2.565.369.892.127,1.784.254,2.676.381.667.095,1.243.113,1.849-.242.498-.291.973-.862,1.103-1.434.258-1.134-.347-2.763-1.676-2.952Z"/><path class="e" d="M284.542,183.402c-2.498.396-4.42,1.886-6.094,3.701-1.626,1.764-3.252,3.552-4.703,5.464-1.674,2.206-3.256,4.683-3.68,7.471-.349,2.303.221,5.219,1.993,6.863,1.968,1.826,4.96,2.76,7.552,1.822,1.647-.597,3.264-1.551,4.676-2.579,1.629-1.187,3.098-2.547,4.501-3.991,1.886-1.942,4.088-3.978,5.317-6.421,1.527-3.036,1.226-6.616-.959-9.255-1.916-2.314-5.007-3.523-7.966-3.159-1.286.158-2.4.99-2.4,2.4,0,1.174,1.105,2.559,2.4,2.4,1.628-.2,3.238.095,4.389,1.534.961,1.202.904,2.797.144,4.114-1.036,1.792-2.676,3.289-4.102,4.769-1.105,1.147-2.243,2.261-3.481,3.265-.322.262.439-.318-.099.077-.11.081-.221.162-.332.242-.246.175-.497.345-.751.509-.542.349-1.102.67-1.673.971-1.429.754-2.447.931-3.76-.031.349.256-.433-.454-.12-.059-.279-.352-.338-.6-.406-.838-.051-.18-.099-.359-.141-.541-.002-.009-.09-.462-.051-.185-.025-.173-.034-.357-.039-.533-.003-.103.009-.773-.034-.316.196-2.106,1.661-4.088,2.879-5.723,1.162-1.56,2.58-3.029,3.895-4.497,1.426-1.592,2.38-2.537,4.319-2.844,1.281-.203,1.992-1.802,1.676-2.952-.375-1.365-1.667-1.88-2.952-1.676Z"/><path class="e" d="M274.839,205.482c-2.316,2.64-4.252,5.898-4.62,9.453-.398,3.848,1.932,7.803,5.859,8.573,4.066.797,7.617-1.74,10.531-4.294,1.285-1.126,2.59-2.36,3.708-3.652,1.234-1.426,1.991-3.058,2.572-4.84.635-1.949.748-4.482-.047-6.388-.894-2.143-2.722-3.603-5.002-4.042-1.272-.245-2.59.357-2.952,1.676-.323,1.175.397,2.706,1.676,2.952.297.057.59.123.877.221.393.133-.262-.121.104.048.108.05.213.117.312.181-.349-.227.417.42.19.142.147.181.331.513.39.658.323.796.108,2.361-.138,3.154-.35,1.129-.751,2.117-1.377,2.843-.906,1.05-1.966,1.985-2.956,2.955-.956.936-1.73,1.541-2.808,2.258-.619.412-1.255.802-1.909,1.154-.015.008-.547.26-.295.157.21-.085-.166.046-.168.047-.159.039-.316.083-.476.12l-.243.044c.186-.03.192-.037.019-.022-.292.005-.584.017-.875-.018.38.046-.356-.098-.459-.129-.312-.094-.743-.318-.905-.527-.273-.351-.542-.773-.669-1.186-.028-.092-.209-.844-.161-.548-.056-.344-.032-.693-.037-1.038-.006-.447.006-.241-.012-.102.027-.208.082-.414.132-.618.099-.4.215-.794.347-1.184.224-.662.463-1.194.836-1.874.316-.577.668-1.134,1.05-1.669.087-.122.176-.242.266-.362-.198.264-.031.04.081-.096.182-.22.366-.438.554-.653.854-.974.959-2.435,0-3.394-.872-.872-2.536-.978-3.394,0h0Z"/><path class="e" d="M282.748,223.221c.085.08.17.186.261.26-.287-.237-.112-.177-.018-.021.143.24.278.478.41.724.043.079.167.419.015.019.051.134.1.269.146.406.089.265.165.535.23.807.049.206.126.869.08.294.016.203.006.419.032.619.04.315.006-.069.028-.151-.042.159-.07.319-.115.479-.126.437-.121.391-.315.746-.473.865-.996,1.456-1.759,2.092-.163.136-.327.268-.493.4-.092.073-.185.144-.276.218-.263.213.327-.242.043-.033-.457.337-.907.683-1.368,1.016-.786.568-1.582,1.133-2.415,1.631-.357.213-.779.438-1.084.554-.685.26-1.18.375-1.658.247-.297-.08-.576-.199-.86-.315-.097-.04-.194-.079-.291-.118.046.019.513.253.163.067-.146-.077-.294-.154-.441-.228-.082-.041-.346-.233-.05-.013.386.286-.092-.106-.09-.106-.107.027-.117-.194.063.101-.065-.107-.136-.208-.199-.316-.069-.121-.132-.246-.192-.372.05.104.133.387-.037-.105-.208-.604-.255-1.011-.115-1.622.031-.137.065-.274.104-.41-.003.012.252-.687.132-.424.13-.286.41-.728.514-.866.32-.424.926-1.125,1.362-1.647.885-1.06,1.846-2.006,2.934-2.859,1.021-.801.839-2.555,0-3.394-1.008-1.008-2.371-.803-3.394,0-1.18.926-2.196,1.966-3.15,3.12-1.264,1.529-2.541,2.965-3.063,4.93-.554,2.087-.319,4.191.761,6.072.802,1.398,1.985,2.11,3.422,2.702,1.854.763,3.75.818,5.635.081,1.294-.506,2.418-1.193,3.552-1.982,2.258-1.571,4.612-3.165,6.114-5.523,1.119-1.758,1.528-3.641,1.154-5.677-.317-1.728-1.077-3.573-2.376-4.795-.944-.888-2.458-.936-3.394,0-.897.897-.947,2.503,0,3.394h0Z"/><path class="e" d="M283.232,138.185c-.228,3.368-.456,6.737-.684,10.105-.085,1.255,1.165,2.455,2.4,2.4,1.373-.061,2.309-1.055,2.4-2.4.228-3.368.456-6.737.684-10.105.085-1.255-1.165-2.455-2.4-2.4-1.373.061-2.309,1.055-2.4,2.4h0Z"/><path class="e" d="M298.113,162.39c3.252-.824,6.529-1.593,9.846-2.112.556-.087,1.163-.639,1.434-1.103.301-.514.429-1.273.242-1.849-.438-1.353-1.619-1.885-2.952-1.676-3.316.519-6.594,1.288-9.846,2.112-1.217.308-2.07,1.736-1.676,2.952.407,1.258,1.648,2.007,2.952,1.676h0Z"/><path class="e" d="M294.843,153.458c2.26-2.588,4.748-4.986,7.332-7.249.948-.83.912-2.557,0-3.394-1.01-.928-2.383-.885-3.394,0-2.584,2.262-5.072,4.66-7.332,7.249-.422.484-.703,1.038-.703,1.697,0,.589.261,1.292.703,1.697.905.831,2.512,1.01,3.394,0h0Z"/></g></g></svg>